<svg width="7677" height="1105" viewBox="0 0 7677 1105" fill="none" xmlns="http://www.w3.org/2000/svg">
<path d="M-4.87827e-06 210.236V-4.87857e-06H210.147V210.236H-4.87827e-06Z" transform="translate(1046.87 116.042)" fill="#00FF00" stroke="#00FF00" stroke-width="0.58541" stroke-miterlimit="3.23931" stroke-linecap="square"/>
<path d="M-4.87827e-06 210.236V-4.87857e-06H210.147V210.236H-4.87827e-06Z" transform="translate(1046.87 116.042)" stroke="#808080" stroke-width="39.0274" stroke-miterlimit="3.25" stroke-linecap="square"/>
<path d="M0 210.236V-4.87857e-06H210.147V210.236H0Z" transform="translate(1257.02 116.042)" fill="#00FF00" stroke="#00FF00" stroke-width="0.58541" stroke-miterlimit="3.25" stroke-linecap="square"/>
<path d="M0 210.236V-4.87857e-06H210.147V210.236H0Z" transform="translate(1257.02 116.042)" stroke="#808080" stroke-width="39.0274" stroke-miterlimit="3.25" stroke-linecap="square"/>
<path d="M4.87827e-06 210.236V-4.87857e-06H210.147V210.236H4.87827e-06Z" transform="translate(1467.17 116.042)" fill="#00FF00" stroke="#00FF00" stroke-width="0.58541" stroke-miterlimit="3.25" stroke-linecap="square"/>
<path d="M4.87827e-06 210.236V-4.87857e-06H210.147V210.236H4.87827e-06Z" transform="translate(1467.17 116.042)" stroke="#808080" stroke-width="39.0274" stroke-miterlimit="3.25" stroke-linecap="square"/>
<path d="M-4.87827e-06 210.236V-4.87857e-06H210.147V210.236H-4.87827e-06Z" transform="translate(1887.46 116.042)" fill="#00FF00" stroke="#00FF00" stroke-width="0.58541" stroke-miterlimit="3.23931" stroke-linecap="square"/>
<path d="M-4.87827e-06 210.236V-4.87857e-06H210.147V210.236H-4.87827e-06Z" transform="translate(1887.46 116.042)" stroke="#808080" stroke-width="39.0274" stroke-miterlimit="3.25" stroke-linecap="square"/>
<path d="M0 210.236V-4.87857e-06H210.223V210.236H0Z" transform="translate(2097.61 116.042)" fill="#00FF00" stroke="#00FF00" stroke-width="0.58541" stroke-miterlimit="3.25" stroke-linecap="square"/>
<path d="M0 210.236V-4.87857e-06H210.223V210.236H0Z" transform="translate(2097.61 116.042)" stroke="#808080" stroke-width="39.0274" stroke-miterlimit="3.25" stroke-linecap="square"/>
<path d="M9.75654e-06 210.236V-4.87857e-06H210.147V210.236H9.75654e-06Z" transform="translate(2307.83 116.042)" fill="black" stroke="black" stroke-width="0.58541" stroke-miterlimit="3.25" stroke-linecap="square"/>
<path d="M9.75654e-06 210.236V-4.87857e-06H210.147V210.236H9.75654e-06Z" transform="translate(2307.83 116.042)" stroke="#808080" stroke-width="39.0274" stroke-miterlimit="3.25" stroke-linecap="square"/>
<path d="M0 210.236V-4.87857e-06H210.147V210.236H0Z" transform="translate(2728.12 116.042)" fill="#00FF00" stroke="#00FF00" stroke-width="0.58541" stroke-miterlimit="3.23931" stroke-linecap="square"/>
<path d="M0 210.236V-4.87857e-06H210.147V210.236H0Z" transform="translate(2728.12 116.042)" stroke="#808080" stroke-width="39.0274" stroke-miterlimit="3.25" stroke-linecap="square"/>
<path d="M4.87827e-06 210.236V-4.87857e-06H210.147V210.236H4.87827e-06Z" transform="translate(2938.27 116.042)" fill="black" stroke="black" stroke-width="0.58541" stroke-miterlimit="3.25" stroke-linecap="square"/>
<path d="M4.87827e-06 210.236V-4.87857e-06H210.147V210.236H4.87827e-06Z" transform="translate(2938.27 116.042)" stroke="#808080" stroke-width="39.0274" stroke-miterlimit="3.25" stroke-linecap="square"/>
<path d="M-9.75654e-06 210.236V-4.87857e-06H210.147V210.236H-9.75654e-06Z" transform="translate(3148.42 116.042)" fill="#00FF00" stroke="#00FF00" stroke-width="0.58541" stroke-miterlimit="3.25" stroke-linecap="square"/>
<path d="M-9.75654e-06 210.236V-4.87857e-06H210.147V210.236H-9.75654e-06Z" transform="translate(3148.42 116.042)" stroke="#808080" stroke-width="39.0274" stroke-miterlimit="3.25" stroke-linecap="square"/>
<path d="M0 210.236V-4.87857e-06H210.147V210.236H0Z" transform="translate(3568.71 116.042)" fill="#00FF00" stroke="#00FF00" stroke-width="0.58541" stroke-miterlimit="3.23931" stroke-linecap="square"/>
<path d="M0 210.236V-4.87857e-06H210.147V210.236H0Z" transform="translate(3568.71 116.042)" stroke="#808080" stroke-width="39.0274" stroke-miterlimit="3.25" stroke-linecap="square"/>
<path d="M4.87827e-06 210.236V-4.87857e-06H210.223V210.236H4.87827e-06Z" transform="translate(3778.86 116.042)" fill="black" stroke="black" stroke-width="0.58541" stroke-miterlimit="3.25" stroke-linecap="square"/>
<path d="M4.87827e-06 210.236V-4.87857e-06H210.223V210.236H4.87827e-06Z" transform="translate(3778.86 116.042)" stroke="#808080" stroke-width="39.0274" stroke-miterlimit="3.25" stroke-linecap="square"/>
<path d="M-4.87827e-06 210.236V-4.87857e-06H210.147V210.236H-4.87827e-06Z" transform="translate(3989.08 116.042)" fill="black" stroke="black" stroke-width="0.58541" stroke-miterlimit="3.25" stroke-linecap="square"/>
<path d="M-4.87827e-06 210.236V-4.87857e-06H210.147V210.236H-4.87827e-06Z" transform="translate(3989.08 116.042)" stroke="#808080" stroke-width="39.0274" stroke-miterlimit="3.25" stroke-linecap="square"/>
<path d="M4.87827e-06 210.236V-4.87857e-06H210.147V210.236H4.87827e-06Z" transform="translate(4409.37 116.042)" fill="black" stroke="black" stroke-width="0.58541" stroke-miterlimit="3.23931" stroke-linecap="square"/>
<path d="M4.87827e-06 210.236V-4.87857e-06H210.147V210.236H4.87827e-06Z" transform="translate(4409.37 116.042)" stroke="#808080" stroke-width="39.0274" stroke-miterlimit="3.25" stroke-linecap="square"/>
<path d="M9.75654e-06 210.236V-4.87857e-06H210.147V210.236H9.75654e-06Z" transform="translate(4619.52 116.042)" fill="#00FF00" stroke="#00FF00" stroke-width="0.58541" stroke-miterlimit="3.25" stroke-linecap="square"/>
<path d="M9.75654e-06 210.236V-4.87857e-06H210.147V210.236H9.75654e-06Z" transform="translate(4619.52 116.042)" stroke="#808080" stroke-width="39.0274" stroke-miterlimit="3.25" stroke-linecap="square"/>
<path d="M-4.87827e-06 210.236V-4.87857e-06H210.147V210.236H-4.87827e-06Z" transform="translate(4829.67 116.042)" fill="#00FF00" stroke="#00FF00" stroke-width="0.58541" stroke-miterlimit="3.25" stroke-linecap="square"/>
<path d="M-4.87827e-06 210.236V-4.87857e-06H210.147V210.236H-4.87827e-06Z" transform="translate(4829.67 116.042)" stroke="#808080" stroke-width="39.0274" stroke-miterlimit="3.25" stroke-linecap="square"/>
<path d="M4.87827e-06 210.236V-4.87857e-06H210.147V210.236H4.87827e-06Z" transform="translate(5249.96 116.042)" fill="black" stroke="black" stroke-width="0.58541" stroke-miterlimit="3.23931" stroke-linecap="square"/>
<path d="M4.87827e-06 210.236V-4.87857e-06H210.147V210.236H4.87827e-06Z" transform="translate(5249.96 116.042)" stroke="#808080" stroke-width="39.0274" stroke-miterlimit="3.25" stroke-linecap="square"/>
<path d="M-9.75654e-06 210.236V-4.87857e-06H210.223V210.236H-9.75654e-06Z" transform="translate(5460.11 116.042)" fill="#00FF00" stroke="#00FF00" stroke-width="0.58541" stroke-miterlimit="3.25" stroke-linecap="square"/>
<path d="M-9.75654e-06 210.236V-4.87857e-06H210.223V210.236H-9.75654e-06Z" transform="translate(5460.11 116.042)" stroke="#808080" stroke-width="39.0274" stroke-miterlimit="3.25" stroke-linecap="square"/>
<path d="M0 210.236V-4.87857e-06H210.147V210.236H0Z" transform="translate(5670.33 116.042)" fill="black" stroke="black" stroke-width="0.58541" stroke-miterlimit="3.25" stroke-linecap="square"/>
<path d="M0 210.236V-4.87857e-06H210.147V210.236H0Z" transform="translate(5670.33 116.042)" stroke="#808080" stroke-width="39.0274" stroke-miterlimit="3.25" stroke-linecap="square"/>
<path d="M-9.75654e-06 210.236V-4.87857e-06H210.147V210.236H-9.75654e-06Z" transform="translate(6090.62 116.042)" fill="black" stroke="black" stroke-width="0.58541" stroke-miterlimit="3.23931" stroke-linecap="square"/>
<path d="M-9.75654e-06 210.236V-4.87857e-06H210.147V210.236H-9.75654e-06Z" transform="translate(6090.62 116.042)" stroke="#808080" stroke-width="39.0274" stroke-miterlimit="3.25" stroke-linecap="square"/>
<path d="M-4.87827e-06 210.236V-4.87857e-06H210.147V210.236H-4.87827e-06Z" transform="translate(6300.77 116.042)" fill="black" stroke="black" stroke-width="0.58541" stroke-miterlimit="3.25" stroke-linecap="square"/>
<path d="M-4.87827e-06 210.236V-4.87857e-06H210.147V210.236H-4.87827e-06Z" transform="translate(6300.77 116.042)" stroke="#808080" stroke-width="39.0274" stroke-miterlimit="3.25" stroke-linecap="square"/>
<path d="M0 210.236V-4.87857e-06H210.147V210.236H0Z" transform="translate(6510.92 116.042)" fill="#00FF00" stroke="#00FF00" stroke-width="0.58541" stroke-miterlimit="3.25" stroke-linecap="square"/>
<path d="M0 210.236V-4.87857e-06H210.147V210.236H0Z" transform="translate(6510.92 116.042)" stroke="#808080" stroke-width="39.0274" stroke-miterlimit="3.25" stroke-linecap="square"/>
<path d="M9.75654e-06 210.236V-4.87857e-06H210.147V210.236H9.75654e-06Z" transform="translate(6931.21 116.042)" fill="black" stroke="black" stroke-width="0.58541" stroke-miterlimit="3.23931" stroke-linecap="square"/>
<path d="M9.75654e-06 210.236V-4.87857e-06H210.147V210.236H9.75654e-06Z" transform="translate(6931.21 116.042)" stroke="#808080" stroke-width="39.0274" stroke-miterlimit="3.25" stroke-linecap="square"/>
<path d="M-4.87827e-06 210.236V-4.87857e-06H210.147V210.236H-4.87827e-06Z" transform="translate(7141.36 116.042)" fill="black" stroke="black" stroke-width="0.58541" stroke-miterlimit="3.25" stroke-linecap="square"/>
<path d="M-4.87827e-06 210.236V-4.87857e-06H210.147V210.236H-4.87827e-06Z" transform="translate(7141.36 116.042)" stroke="#808080" stroke-width="39.0274" stroke-miterlimit="3.25" stroke-linecap="square"/>
<path d="M0 210.236V-4.87857e-06H210.223V210.236H0Z" transform="translate(7351.5 116.042)" fill="black" stroke="black" stroke-width="0.58541" stroke-miterlimit="3.25" stroke-linecap="square"/>
<path d="M0 210.236V-4.87857e-06H210.223V210.236H0Z" transform="translate(7351.5 116.042)" stroke="#808080" stroke-width="39.0274" stroke-miterlimit="3.25" stroke-linecap="square"/>
<path d="M0 210.16V-9.75714e-06H210.147V210.16H0Z" transform="translate(1257.02 728.798)" fill="#00FF00" stroke="#00FF00" stroke-width="0.58541" stroke-miterlimit="3.25" stroke-linecap="square"/>
<path d="M0 210.16V-9.75714e-06H210.147V210.16H0Z" transform="translate(1257.02 728.798)" stroke="#808080" stroke-width="39.0274" stroke-miterlimit="3.25" stroke-linecap="square"/>
<path d="M0 210.16V-9.75714e-06H210.223V210.16H0Z" transform="translate(2097.61 728.798)" fill="black" stroke="black" stroke-width="0.58541" stroke-miterlimit="3.25" stroke-linecap="square"/>
<path d="M0 210.16V-9.75714e-06H210.223V210.16H0Z" transform="translate(2097.61 728.798)" stroke="#808080" stroke-width="39.0274" stroke-miterlimit="3.25" stroke-linecap="square"/>
<path d="M4.87827e-06 210.16V-9.75714e-06H210.147V210.16H4.87827e-06Z" transform="translate(2938.27 728.798)" fill="#00FF00" stroke="#00FF00" stroke-width="0.58541" stroke-miterlimit="3.25" stroke-linecap="square"/>
<path d="M4.87827e-06 210.16V-9.75714e-06H210.147V210.16H4.87827e-06Z" transform="translate(2938.27 728.798)" stroke="#808080" stroke-width="39.0274" stroke-miterlimit="3.25" stroke-linecap="square"/>
<path d="M4.87827e-06 210.16V-9.75714e-06H210.223V210.16H4.87827e-06Z" transform="translate(3778.86 728.798)" fill="black" stroke="black" stroke-width="0.58541" stroke-miterlimit="3.25" stroke-linecap="square"/>
<path d="M4.87827e-06 210.16V-9.75714e-06H210.223V210.16H4.87827e-06Z" transform="translate(3778.86 728.798)" stroke="#808080" stroke-width="39.0274" stroke-miterlimit="3.25" stroke-linecap="square"/>
<path d="M9.75654e-06 210.16V-9.75714e-06H210.147V210.16H9.75654e-06Z" transform="translate(4619.52 728.798)" fill="#00FF00" stroke="#00FF00" stroke-width="0.58541" stroke-miterlimit="3.25" stroke-linecap="square"/>
<path d="M9.75654e-06 210.16V-9.75714e-06H210.147V210.16H9.75654e-06Z" transform="translate(4619.52 728.798)" stroke="#808080" stroke-width="39.0274" stroke-miterlimit="3.25" stroke-linecap="square"/>
<path d="M-9.75654e-06 210.16V-9.75714e-06H210.223V210.16H-9.75654e-06Z" transform="translate(5460.11 728.798)" fill="black" stroke="black" stroke-width="0.58541" stroke-miterlimit="3.25" stroke-linecap="square"/>
<path d="M-9.75654e-06 210.16V-9.75714e-06H210.223V210.16H-9.75654e-06Z" transform="translate(5460.11 728.798)" stroke="#808080" stroke-width="39.0274" stroke-miterlimit="3.25" stroke-linecap="square"/>
<path d="M-4.87827e-06 210.16V-9.75714e-06H210.147V210.16H-4.87827e-06Z" transform="translate(6300.77 728.798)" fill="#00FF00" stroke="#00FF00" stroke-width="0.58541" stroke-miterlimit="3.25" stroke-linecap="square"/>
<path d="M-4.87827e-06 210.16V-9.75714e-06H210.147V210.16H-4.87827e-06Z" transform="translate(6300.77 728.798)" stroke="#808080" stroke-width="39.0274" stroke-miterlimit="3.25" stroke-linecap="square"/>
<path d="M-4.87827e-06 210.16V-9.75714e-06H210.147V210.16H-4.87827e-06Z" transform="translate(7141.36 728.798)" fill="black" stroke="black" stroke-width="0.58541" stroke-miterlimit="3.25" stroke-linecap="square"/>
<path d="M-4.87827e-06 210.16V-9.75714e-06H210.147V210.16H-4.87827e-06Z" transform="translate(7141.36 728.798)" stroke="#808080" stroke-width="39.0274" stroke-miterlimit="3.25" stroke-linecap="square"/>
<path d="M-5e-07 1083V7.73571e-06" transform="translate(941 11)" stroke="#333333" stroke-width="19.5137" stroke-miterlimit="3.25" stroke-linecap="square"/>
<path d="M-5e-07 1083V7.73571e-06" transform="translate(11 11)" stroke="#333333" stroke-width="19.5137" stroke-miterlimit="3.25" stroke-linecap="square"/>
<path d="M5e-07 1083V7.73571e-06" transform="translate(7666 11)" stroke="#333333" stroke-width="19.5137" stroke-miterlimit="3.25" stroke-linecap="square"/>
<path d="M-2.5e-07 1083V7.73571e-06" transform="translate(1781.66 11)" stroke="#333333" stroke-width="19.5137" stroke-miterlimit="3.25" stroke-linecap="square"/>
<path d="M-2.5e-07 1083V7.73571e-06" transform="translate(2622.25 11)" stroke="#333333" stroke-width="19.5137" stroke-miterlimit="3.25" stroke-linecap="square"/>
<path d="M0 1083V7.73571e-06" transform="translate(3462.91 11)" stroke="#333333" stroke-width="19.5137" stroke-miterlimit="3.25" stroke-linecap="square"/>
<path d="M0 1083V7.73571e-06" transform="translate(4303.5 11)" stroke="#333333" stroke-width="19.5137" stroke-miterlimit="3.25" stroke-linecap="square"/>
<path d="M0 1083V7.73571e-06" transform="translate(5144.09 11)" stroke="#333333" stroke-width="19.5137" stroke-miterlimit="3.25" stroke-linecap="square"/>
<path d="M2.5e-07 1083V7.73571e-06" transform="translate(5984.75 11)" stroke="#333333" stroke-width="19.5137" stroke-miterlimit="3.25" stroke-linecap="square"/>
<path d="M2.5e-07 1083V7.73571e-06" transform="translate(6825.34 11)" stroke="#333333" stroke-width="19.5137" stroke-miterlimit="3.25" stroke-linecap="square"/>
<path d="M-1.11058e-05 2.5e-07H7655" transform="translate(11 1094)" stroke="#333333" stroke-width="20.8193" stroke-miterlimit="3.25" stroke-linecap="square"/>
<path d="M-1.11058e-05 2.5e-07H7655" transform="translate(11 11)" stroke="#333333" stroke-width="20.8193" stroke-miterlimit="3.25" stroke-linecap="square"/>
<path d="M-1.34923e-06 2.5e-07H930" transform="translate(11 541)" stroke="#333333" stroke-width="20.82" stroke-miterlimit="3.25" stroke-linecap="square"/>
<path d="M304 0L229 -43.3013V43.3013L304 0ZM0 7.5H236.5V-7.5H0V7.5Z" transform="translate(1362 372) rotate(90)" fill="black"/>
<path d="M304 0L229 -43.3013V43.3013L304 0ZM0 7.5H236.5V-7.5H0V7.5Z" transform="translate(2202 372) rotate(90)" fill="black"/>
<path d="M304 0L229 -43.3013V43.3013L304 0ZM0 7.5H236.5V-7.5H0V7.5Z" transform="translate(3042 372) rotate(90)" fill="black"/>
<path d="M304 0L229 -43.3013V43.3013L304 0ZM0 7.5H236.5V-7.5H0V7.5Z" transform="translate(3882 372) rotate(90)" fill="black"/>
<path d="M304 0L229 -43.3013V43.3013L304 0ZM0 7.5H236.5V-7.5H0V7.5Z" transform="translate(4720 372) rotate(90)" fill="black"/>
<path d="M304 0L229 -43.3013V43.3013L304 0ZM0 7.5H236.5V-7.5H0V7.5Z" transform="translate(5560 372) rotate(90)" fill="black"/>
<path d="M304 0L229 -43.3013V43.3013L304 0ZM0 7.5H236.5V-7.5H0V7.5Z" transform="translate(6400 372) rotate(90)" fill="black"/>
<path d="M304 0L229 -43.3013V43.3013L304 0ZM0 7.5H236.5V-7.5H0V7.5Z" transform="translate(7241 372) rotate(90)" fill="black"/>
<path d="M5.39365 124.068C1.79788 124.068 0 124.825 0 126.339C0 127.285 1.51401 132.585 4.54202 142.238C7.57004 151.891 10.7873 161.449 14.1938 170.913L19.0197 184.824C19.966 188.231 21.1961 190.692 22.7101 192.206H155.564H181.113C187.169 192.206 190.765 192.111 191.901 191.922C193.036 191.733 193.698 190.881 193.888 189.367C193.888 188.231 192.279 177.443 189.062 157.001C185.844 136.56 184.047 126.244 183.668 126.055C183.668 124.73 181.87 124.068 178.274 124.068C176.571 124.068 175.436 124.068 174.868 124.068C174.3 124.068 173.732 124.541 173.165 125.487L172.597 126.339C172.597 127.475 173.165 131.733 174.3 139.115C175.436 146.497 176.003 152.269 176.003 156.433C176.003 163.058 174.773 168.074 172.313 171.48C169.853 174.887 164.648 177.253 156.7 178.578C155.754 178.767 150.265 178.957 140.235 179.146C131.529 179.146 126.041 179.051 123.77 178.862C121.499 178.673 119.796 177.916 118.66 176.591C118.471 176.402 111.753 149.998 98.5051 97.3805C85.2576 44.7628 78.6338 17.9808 78.6338 17.0345C78.6338 14.7632 86.9608 13.4383 103.615 13.0598C109.671 13.0598 113.551 12.9651 115.254 12.7759C116.957 12.5866 117.809 11.7349 117.809 10.2207C117.809 9.27433 117.525 7.94943 116.957 6.24598C116.2 2.83908 115.348 0.851724 114.402 0.283908L113.834 0C113.267 0 112.604 0 111.847 0C110.901 0 105.981 0.094636 97.0858 0.283908C88.191 0.47318 75.4165 0.567816 58.7624 0.567816C34.3491 0.567816 18.8305 0.378544 12.2067 0H7.94854C6.81304 1.13563 6.24528 1.98736 6.24528 2.55517C6.24528 3.12299 6.43453 4.82644 6.81304 7.66552C7.57004 10.1261 8.5163 11.9241 9.6518 13.0598H17.6003H20.723C35.8631 13.0598 44.8525 13.9115 47.6913 15.6149C47.8805 15.8042 48.0698 15.8989 48.259 15.8989C49.2053 16.4667 50.1515 18.3594 51.0978 21.577C52.044 24.7946 55.829 39.6525 62.4528 66.1506C65.6701 79.0211 68.3196 89.5257 70.4014 97.6644C83.6489 149.714 90.2727 176.307 90.2727 177.443C90.2727 178.389 87.5286 178.862 82.0403 178.862H73.2401C60.5603 178.862 52.2333 178.294 48.259 177.159C39.7427 175.266 33.1189 171.386 28.3877 165.518C23.6564 159.651 18.5466 148.673 13.0583 132.585C11.7336 128.421 10.7873 125.961 10.2196 125.203C9.6518 124.446 8.32704 124.068 6.24528 124.068H5.39365Z" transform="translate(415 354.206) scale(1 -1)" fill="#333333"/>
<path d="M5.39365 124.068C1.79788 124.068 0 124.825 0 126.339C0 127.285 1.51401 132.585 4.54202 142.238C7.57004 151.891 10.7873 161.449 14.1938 170.913L19.0197 184.824C19.966 188.231 21.1961 190.692 22.7101 192.206H155.564H181.113C187.169 192.206 190.765 192.111 191.901 191.922C193.036 191.733 193.698 190.881 193.888 189.367C193.888 188.231 192.279 177.443 189.062 157.001C185.844 136.56 184.047 126.244 183.668 126.055C183.668 124.73 181.87 124.068 178.274 124.068C176.571 124.068 175.436 124.068 174.868 124.068C174.3 124.068 173.732 124.541 173.165 125.487L172.597 126.339C172.597 127.475 173.165 131.733 174.3 139.115C175.436 146.497 176.003 152.269 176.003 156.433C176.003 163.058 174.773 168.074 172.313 171.48C169.853 174.887 164.648 177.253 156.7 178.578C155.754 178.767 150.265 178.957 140.235 179.146C131.529 179.146 126.041 179.051 123.77 178.862C121.499 178.673 119.796 177.916 118.66 176.591C118.471 176.402 111.753 149.998 98.5051 97.3805C85.2576 44.7628 78.6338 17.9808 78.6338 17.0345C78.6338 14.7632 86.9608 13.4383 103.615 13.0598C109.671 13.0598 113.551 12.9651 115.254 12.7759C116.957 12.5866 117.809 11.7349 117.809 10.2207C117.809 9.27433 117.525 7.94943 116.957 6.24598C116.2 2.83908 115.348 0.851724 114.402 0.283908L113.834 0C113.267 0 112.604 0 111.847 0C110.901 0 105.981 0.094636 97.0858 0.283908C88.191 0.47318 75.4165 0.567816 58.7624 0.567816C34.3491 0.567816 18.8305 0.378544 12.2067 0H7.94854C6.81304 1.13563 6.24528 1.98736 6.24528 2.55517C6.24528 3.12299 6.43453 4.82644 6.81304 7.66552C7.57004 10.1261 8.5163 11.9241 9.6518 13.0598H17.6003H20.723C35.8631 13.0598 44.8525 13.9115 47.6913 15.6149C47.8805 15.8042 48.0698 15.8989 48.259 15.8989C49.2053 16.4667 50.1515 18.3594 51.0978 21.577C52.044 24.7946 55.829 39.6525 62.4528 66.1506C65.6701 79.0211 68.3196 89.5257 70.4014 97.6644C83.6489 149.714 90.2727 176.307 90.2727 177.443C90.2727 178.389 87.5286 178.862 82.0403 178.862H73.2401C60.5603 178.862 52.2333 178.294 48.259 177.159C39.7427 175.266 33.1189 171.386 28.3877 165.518C23.6564 159.651 18.5466 148.673 13.0583 132.585C11.7336 128.421 10.7873 125.961 10.2196 125.203C9.6518 124.446 8.32704 124.068 6.24528 124.068H5.39365Z" transform="translate(114 917.206) scale(1 -1)" fill="#333333"/>
<path d="M0 90.5667C0 90.5667 0 91.7969 0 94.2575C0 96.718 1.32476 98.6107 3.97427 99.9356H88.8533V142.522L89.1372 185.108C91.0297 187.569 92.8276 188.799 94.5309 188.799C96.9911 188.799 98.8837 187.379 100.208 184.54V99.9356H184.804C187.642 98.4215 189.062 96.5287 189.062 94.2575C189.062 91.9862 187.642 90.0935 184.804 88.5793H100.208V3.97471C98.6944 1.3249 96.9911 0 95.0986 0H94.5309H93.9631C91.6921 0 89.9889 1.3249 88.8533 3.97471V88.5793H3.97427C1.32476 89.9042 0 91.7969 0 94.2575V90.5667Z" transform="translate(386.805 940.486) scale(1 -1)" fill="#333333"/>
<path d="M36.9039 164.099L33.2136 162.679C30.564 161.733 26.779 160.787 21.8585 159.84C16.938 158.894 11.4497 158.231 5.39365 157.853H0V170.913H5.39365C14.2885 171.291 22.5209 172.711 30.0909 175.171C37.6609 177.632 42.96 179.903 45.988 181.985C49.016 184.067 51.6655 186.149 53.9365 188.231C54.315 188.799 55.4505 189.083 57.3431 189.083C59.0463 189.083 60.6549 188.515 62.169 187.379V102.491L62.4528 17.3184C63.7776 15.9935 64.9131 15.1418 65.8593 14.7632C66.8056 14.3847 69.0766 14.0061 72.6724 13.6276C76.2682 13.249 82.1349 13.0598 90.2727 13.0598H97.6535V0H94.5309C90.5566 0.567816 75.5112 0.851724 49.3945 0.851724C23.6564 0.851724 8.80017 0.567816 4.8259 0H1.41938V13.0598H8.80017C12.9637 13.0598 16.5595 13.0598 19.5875 13.0598C22.6155 13.0598 24.9811 13.1544 26.6844 13.3437C28.3877 13.5329 29.9017 13.8169 31.2264 14.1954C32.5512 14.5739 33.3082 14.7632 33.4974 14.7632C33.6867 14.7632 34.2544 15.2364 35.2007 16.1828C36.1469 17.1291 36.7147 17.5077 36.9039 17.3184V164.099Z" transform="translate(678.346 917.206) scale(1 -1)" fill="#333333"/>
</svg>
